<?xml version="1.0" encoding="iso-8859-1"?>
<!DOCTYPE svg PUBLIC "-//W3C//DTD SVG 1.1//EN" "http://www.w3.org/Graphics/SVG/1.1/DTD/svg11.dtd">
<svg 
 version="1.1" xmlns="http://www.w3.org/2000/svg" xmlns:xlink="http://www.w3.org/1999/xlink" x="0px" y="0px" width="512px"
	 height="512px" viewBox="0 0 512 512" style="enable-background:new 0 0 512 512;" xml:space="preserve"
><g id="afcae5a789ccd549f9c6e2a2f816480c"><g></g><g fill="#999999"><path style="display: inline;" d="M339.258,201.455c-3.755,3.751-8.462,5.955-13.353,6.666c1.746-2.807,4.403-7.543,6.138-12.771
		c1.913-5.76,1.788-13.715,1.788-13.715l0.707-1.069c0,0,2.886-0.271,6.018,0.528c2.158,0.549,4.412,1.614,5.585,2.208
		C346.511,189.828,344.231,196.478,339.258,201.455z M327.086,180.945c0,0-5.344-0.657-10.654-0.137
		c-6.745,0.661-14.463,2.112-17.648,2.745c-0.291,6.45,1.983,12.987,6.895,17.902c5.186,5.182,12.193,7.46,18.979,6.836
		c0.694-3.597,1.955-10.538,2.562-16.692C327.739,186.285,327.086,180.945,327.086,180.945z M332.82,510.476
		c-17.236,5.381-31.275-12.197-31.275-12.197s-14.95-18.643-20.968-45.532c-5.156-23.071-0.724-52.663-8.924-76.55
		c-10.742-31.289-30.802-54.659-30.802-54.659l-23.675-26.715l-26.714-23.67c0,0-23.371-20.062-54.659-30.807
		c-23.887-8.205-53.479-3.768-76.551-8.924c-26.889-6.017-45.532-20.967-45.532-20.967s-17.578-14.039-12.197-31.272
		c7.593-24.29,38.916-54.235,38.916-54.235s40.267-38.163,91.841-69.106C179.792,27.333,238.943,5.844,238.943,5.844l7.635-5.344
		c0,0,17.158,1.314,35.123,11.166c17.532,9.615,33.8,28.465,33.8,28.465s2.57,32.547,19.487,55.876
		c23.379,32.243,37.942,43.062,37.942,43.062s10.82,14.563,43.065,37.942c23.325,16.917,55.874,19.491,55.874,19.491
		s18.851,16.272,28.461,33.796c9.855,17.965,11.17,35.123,11.17,35.123l-5.348,7.635c0,0-21.487,59.15-49.994,106.662
		c-30.939,51.578-69.106,91.841-69.106,91.841S357.106,502.882,332.82,510.476z M273.841,138.087
		c-4.384,4.385-3.739,12.145,1.446,17.331c5.182,5.184,12.946,5.831,17.333,1.445c4.383-4.387,3.738-12.149-1.447-17.333
		C285.991,134.345,278.231,133.7,273.841,138.087z M244.835,100.168c12.961-12.96,12.961-33.977,0-46.939
		c-12.963-12.964-33.979-12.964-46.941,0c-12.963,12.962-12.963,33.979,0,46.939C210.856,113.132,231.873,113.132,244.835,100.168z
		 M237.013,216.318c4.233-4.238,4.233-11.17,0-15.408l-3.851-3.851c-4.233-4.233-4.242-11.17,0-15.407l3.851-3.851
		c4.233-4.237,4.233-11.169,0-15.403l-3.851-3.855c-4.238-4.233-11.17-4.236-15.403,0l-3.855,3.855
		c-4.237,4.237-11.174,4.233-15.407-0.002l-3.851-3.853c-4.233-4.236-11.17-4.236-15.407,0l-3.851,3.853
		c-4.238,4.236-4.238,11.172,0,15.405l3.851,3.851c4.233,4.233,4.237,11.169,0.004,15.407l-3.854,3.855
		c-4.238,4.233-4.238,11.17-0.005,15.403l3.859,3.851c4.229,4.233,11.161,4.238,15.403,0l3.851-3.851
		c4.237-4.238,11.17-4.233,15.403,0l3.851,3.851c4.242,4.238,11.174,4.238,15.412,0L237.013,216.318z M439.458,244.483
		c-7.977,7.976-7.977,20.909,0,28.89c7.976,7.976,20.909,7.976,28.889,0c7.973-7.98,7.977-20.909,0-28.89
		C460.367,236.503,447.434,236.507,439.458,244.483z M348.947,213.19c-4.387,4.387-3.738,12.147,1.443,17.333
		c5.186,5.186,12.949,5.83,17.333,1.447c4.387-4.391,3.742-12.151-1.443-17.333C361.095,209.448,353.335,208.808,348.947,213.19z
		 M345.034,207.231c12.468-12.463,12.468-32.674,0-45.137c-12.459-12.463-32.669-12.463-45.137,0
		c-12.463,12.463-12.459,32.673,0,45.137C312.365,219.694,332.571,219.694,345.034,207.231z M336.908,318.626
		c13.162-13.162,13.166-34.504,0-47.665c-13.157-13.162-34.499-13.158-47.66,0c-13.162,13.161-13.162,34.499,0,47.665
		C302.409,331.787,323.751,331.783,336.908,318.626z M413.459,273.373c7.979-7.98,7.976-20.914,0-28.89
		c-7.977-7.972-20.909-7.98-28.886,0c-7.976,7.98-7.976,20.913,0,28.89C392.55,281.345,405.482,281.349,413.459,273.373z
		 M413.459,328.257c7.976-7.976,7.979-20.909,0-28.885c-7.977-7.98-20.909-7.98-28.886,0c-7.976,7.972-7.976,20.904,0,28.885
		C392.55,336.233,405.482,336.233,413.459,328.257z M468.347,328.257c7.977-7.98,7.973-20.913,0-28.885
		c-7.976-7.977-20.913-7.98-28.889,0c-7.977,7.976-7.977,20.909,0,28.885C447.434,336.229,460.367,336.233,468.347,328.257z
		 M326.392,174.2l1.068-0.711c0,0,0.267-2.891-0.527-6.018c-0.786-3.077-2.633-6.4-2.633-6.4l4.433,0.873
		c0,0,2.596,3.685,4.146,6.745c1.352,2.674,1.685,4.778,1.685,4.778s2.1,0.329,4.773,1.68c2.296,1.164,4.944,2.915,6.122,3.718
		c-1.007-4.03-3.053-7.852-6.201-10.995c-9.257-9.257-24.323-9.257-33.58,0c-4.158,4.163-6.433,9.494-6.857,14.945
		c2.524-1.638,7.848-4.84,13.856-6.836C318.437,174.071,326.392,174.2,326.392,174.2z"></path></g></g></svg>